GRF
version=1
nRows=14
nColumns=28
inDegrees=no
endheader
time	left_ground_force_vx	left_ground_force_vy	left_ground_force_vz	left_ground_force_px	left_ground_force_py	left_ground_force_pz	left_ground_torque_x	left_ground_torque_y	left_ground_torque_z	right_ground_force_vx	right_ground_force_vy	right_ground_force_vz	right_ground_force_px	right_ground_force_py	right_ground_force_pz	right_ground_torque_x	right_ground_torque_y	right_ground_torque_z
      2.03000000	      0.00000000	      0.00000000	     -0.00000000	     -0.42329613	      0.00000000	     -0.26506768	      0.00000000	     -0.00000000	     -0.00000000	      0.00000000	      0.00000000	      0.00000000	      0.24419002	      0.00000000	     -0.18501319	      0.00000000	      0.00000000	      0.00000000	    -37.11958975	    468.12433004	     13.22575063	    822.31494802	      0.00000000	   -285.98539479	      0.00000000	    298.68605235	      0.00000000
      2.04000000	      0.00000000	      0.00000000	     -0.00000000	     -0.42329613	      0.00000000	     -0.26506768	      0.00000000	     -0.00000000	     -0.00000000	      0.00000000	      0.00000000	      0.00000000	      0.24419002	      0.00000000	     -0.18501319	      0.00000000	      0.00000000	      0.00000000	    -33.67991373	    471.60266340	     12.22599372	    824.77837751	      0.00000000	   -285.59163349	      0.00000000	    441.36324678	      0.00000000
      2.05000000	      0.00000000	      0.00000000	     -0.00000000	     -0.42329613	      0.00000000	     -0.26506768	      0.00000000	     -0.00000000	     -0.00000000	      0.00000000	      0.00000000	      0.00000000	      0.24419002	      0.00000000	     -0.18501319	      0.00000000	      0.00000000	      0.00000000	    -30.56742996	    467.48118103	     12.57995367	    827.83692810	      0.00000000	   -287.14469571	      0.00000000	    550.44225395	      0.00000000
      2.06000000	      0.00000000	      0.00000000	     -0.00000000	     -0.42329613	      0.00000000	     -0.26506768	      0.00000000	     -0.00000000	     -0.00000000	      0.00000000	      0.00000000	      0.00000000	      0.24419002	      0.00000000	     -0.18501319	      0.00000000	      0.00000000	      0.00000000	    -27.80029178	    464.23932910	     11.71625331	    830.53242086	      0.00000000	   -287.56549193	      0.00000000	   -267.30396530	     -0.00000000
      2.07000000	      0.00000000	      0.00000000	     -0.00000000	     -0.42329613	      0.00000000	     -0.26506768	      0.00000000	     -0.00000000	     -0.00000000	      0.00000000	      0.00000000	      0.00000000	      0.24419002	      0.00000000	     -0.18501319	      0.00000000	      0.00000000	      0.00000000	    -23.16259407	    469.34674680	      9.67231542	    831.04833389	      0.00000000	   -286.46160405	      0.00000000	   -257.14363367	     -0.00000000
      2.08000000	      0.00000000	      0.00000000	     -0.00000000	     -0.42329613	      0.00000000	     -0.26506768	      0.00000000	     -0.00000000	     -0.00000000	      0.00000000	      0.00000000	      0.00000000	      0.24419002	      0.00000000	     -0.18501319	      0.00000000	      0.00000000	      0.00000000	    -19.70513165	    473.66845608	      8.34634751	    831.61644505	      0.00000000	   -285.48055130	      0.00000000	   -350.26001022	     -0.00000000
      2.09000000	      0.00000000	      0.00000000	     -0.00000000	     -0.42329613	      0.00000000	     -0.26506768	      0.00000000	     -0.00000000	     -0.00000000	      0.00000000	      0.00000000	      0.00000000	      0.24419002	      0.00000000	     -0.18501319	      0.00000000	      0.00000000	      0.00000000	    -15.31213243	    477.83137858	      8.13237801	    832.84215110	      0.00000000	   -285.48388240	      0.00000000	  -1384.40842952	     -0.00000000
      2.10000000	      0.00000000	      0.00000000	     -0.00000000	     -0.42329613	      0.00000000	     -0.26506768	      0.00000000	     -0.00000000	     -0.00000000	      0.00000000	      0.00000000	      0.00000000	      0.24419002	      0.00000000	     -0.18501319	      0.00000000	      0.00000000	      0.00000000	    -10.90610027	    477.40919888	      8.14430341	    835.28441464	      0.00000000	   -286.17204351	      0.00000000	  -1069.41719772	     -0.00000000
      2.11000000	      0.00000000	      0.00000000	     -0.00000000	     -0.42329613	      0.00000000	     -0.26506768	      0.00000000	     -0.00000000	     -0.00000000	      0.00000000	      0.00000000	      0.00000000	      0.24419002	      0.00000000	     -0.18501319	      0.00000000	      0.00000000	      0.00000000	     -6.11626357	    476.53135657	      9.32095721	    837.01182838	      0.00000000	   -286.93145486	      0.00000000	  -1130.91725257	     -0.00000000
      2.12000000	      0.00000000	      0.00000000	     -0.00000000	     -0.42329613	      0.00000000	     -0.26506768	      0.00000000	     -0.00000000	     -0.00000000	      0.00000000	      0.00000000	      0.00000000	      0.24419002	      0.00000000	     -0.18501319	      0.00000000	      0.00000000	      0.00000000	      1.29982899	    486.07479036	     22.37244844	    837.52176481	      0.00000000	   -285.68081654	      0.00000000	   -102.37730738	     -0.00000000
      2.13000000	      0.00000000	      0.00000000	     -0.00000000	     -0.42329613	      0.00000000	     -0.26506768	      0.00000000	     -0.00000000	     -0.00000000	      0.00000000	      0.00000000	      0.00000000	      0.24419002	      0.00000000	     -0.18501319	      0.00000000	      0.00000000	      0.00000000	      1.81791128	    488.87519538	     13.47093731	    838.15102181	      0.00000000	   -285.62925794	      0.00000000	   -546.65864155	     -0.00000000
      2.14000000	      0.00000000	      0.00000000	     -0.00000000	     -0.42329613	      0.00000000	     -0.26506768	      0.00000000	     -0.00000000	     -0.00000000	      0.00000000	      0.00000000	      0.00000000	      0.24419002	      0.00000000	     -0.18501319	      0.00000000	      0.00000000	      0.00000000	      5.90828899	    486.66822910	     13.74505907	    841.45709530	      0.00000000	   -285.39245951	      0.00000000	   -966.71326851	     -0.00000000
      2.15000000	      0.00000000	      0.00000000	     -0.00000000	     -0.42329613	      0.00000000	     -0.26506768	      0.00000000	     -0.00000000	     -0.00000000	      0.00000000	      0.00000000	      0.00000000	      0.24419002	      0.00000000	     -0.18501319	      0.00000000	      0.00000000	      0.00000000	     12.17190735	    497.05959857	     10.51175743	    841.08066743	      0.00000000	   -283.91958262	      0.00000000	  -1038.19446668	     -0.00000000
      2.16000000	      0.00000000	      0.00000000	     -0.00000000	     -0.42329613	      0.00000000	     -0.26506768	      0.00000000	     -0.00000000	     -0.00000000	      0.00000000	      0.00000000	      0.00000000	      0.24419002	      0.00000000	     -0.18501319	      0.00000000	      0.00000000	      0.00000000	     16.52429998	    508.10046494	      8.45663548	    841.61231868	      0.00000000	   -282.81245843	      0.00000000	  -1969.46637860	     -0.00000000
